<?xml version="1.0" standalone="no"?>
<!DOCTYPE svg PUBLIC "-//W3C//DTD SVG 20010904//EN"
 "http://www.w3.org/TR/2001/REC-SVG-20010904/DTD/svg10.dtd">
<svg version="1.0" xmlns="http://www.w3.org/2000/svg"
 width="1445.000000pt" height="1445.000000pt" viewBox="0 0 1445.000000 1445.000000"
 preserveAspectRatio="xMidYMid meet">
<metadata>
Created by potrace 1.14, written by Peter Selinger 2001-2017
</metadata>
<g transform="translate(0.000000,1445.000000) scale(0.100000,-0.100000)"
fill="#000000" stroke="none">
<path d="M0 7225 l0 -7225 7225 0 7225 0 0 7225 0 7225 -7225 0 -7225 0 0
-7225z m7735 3621 c793 -99 1513 -391 1856 -753 l55 -58 33 -803 c19 -441 31
-805 28 -809 -6 -6 -1219 -122 -1225 -117 -2 1 -27 199 -55 439 l-52 437 -65
40 c-196 119 -386 195 -597 237 -214 43 -346 55 -562 48 -285 -8 -461 -46
-656 -141 -212 -104 -312 -250 -334 -491 -16 -166 15 -341 82 -470 42 -78 144
-181 232 -233 218 -128 642 -269 1102 -367 302 -64 942 -227 1086 -276 365
-124 675 -316 942 -584 250 -250 390 -574 447 -1035 20 -161 17 -615 -6 -765
-91 -623 -349 -1076 -806 -1414 -395 -293 -907 -477 -1520 -546 -963 -108
-2158 79 -2850 446 -116 62 -292 178 -381 252 l-65 54 114 924 c63 508 116
926 118 928 3 4 1008 -87 1181 -106 l53 -6 -7 -456 -6 -457 129 -60 c360 -171
590 -218 1049 -218 360 0 590 30 845 110 180 57 257 102 345 205 132 154 190
429 154 724 -33 270 -152 478 -346 605 -91 60 -269 136 -493 210 -218 73 -432
127 -710 180 -393 74 -642 135 -970 237 -339 104 -560 218 -795 408 -396 320
-562 690 -590 1315 -8 180 8 439 40 625 97 568 358 973 808 1253 132 82 429
228 584 286 304 114 611 183 988 220 105 10 697 -3 820 -18z"/>
</g>
</svg>
