<?xml version="1.0" encoding="UTF-8"?>
<svg xmlns="http://www.w3.org/2000/svg" width="512" height="512" viewBox="0 0 512 512" role="img" aria-label="App icon">
  <rect width="512" height="512" rx="96" ry="96" fill="#DC4A22"/>
  <path transform="translate(156.13 119.30) scale(0.35416)" fill="#FEFEFE" d="M264.18 0.21C265.3 0.2 266.41 0.2 267.56 0.19 305.33 0 340.99 2.95 378 10.41 379.04 10.62 380.08 10.83 381.14 11.04 425.53 20.33 473.72 39.55 508.01 69.67 509.6 71.06 511.25 72.37 512.91 73.66 518.57 78.34 522.51 82.51 523.51 89.98 523.85 94.27 523.94 98.54 523.98 102.84 524.04 104.74 524.11 106.63 524.18 108.53 524.36 113.56 524.47 118.59 524.56 123.62 524.67 128.81 524.85 134.01 525.02 139.2 525.28 147.32 525.51 155.44 525.71 163.55 526.01 175.48 526.53 187.39 527.12 199.3 527.86 214.68 528.31 230.02 528 245.41 525.35 246.3 523.37 246.64 520.62 246.86 519.73 246.94 518.85 247.01 517.93 247.08 516.98 247.16 516.02 247.24 515.03 247.32 514.03 247.4 513.03 247.48 512 247.57 508.79 247.83 505.59 248.09 502.38 248.35 484.91 249.76 484.91 249.76 467.48 251.66 458.39 252.77 449.26 253.5 440.14 254.27 436.98 254.54 433.83 254.81 430.67 255.09 428.64 255.26 426.6 255.44 424.57 255.61 423.64 255.69 422.71 255.77 421.75 255.85 416.15 256.32 410.63 256.49 405 256.41 402.86 243.66 401.18 230.91 399.82 218.06 399.5 215.1 399.16 212.14 398.82 209.18 396.97 192.84 396.97 192.84 396.54 184.69 396.33 175.7 396.33 175.7 392.67 167.77 389.22 164.73 385.36 162.95 381.12 161.28 379 160.41 377.01 159.42 374.98 158.33 344.5 142.06 311.18 137.08 276.94 136.98 276.1 136.97 275.25 136.96 274.38 136.96 246.29 136.82 215.69 141.68 193 159.41 192.12 160.01 191.23 160.61 190.32 161.23 179.68 171.28 174.02 185.41 173.61 199.85 173.6 201.84 173.59 203.83 173.61 205.83 173.63 207.84 173.61 209.86 173.59 211.88 173.65 230.34 179.22 247.19 192.17 260.67 213.96 280.96 248.12 289.47 276 297.41 277.1 297.73 277.1 297.73 278.23 298.06 286.3 300.41 294.43 302.32 302.67 304.01 303.38 304.15 304.09 304.3 304.82 304.45 305.55 304.6 306.29 304.75 307.04 304.9 308.59 305.22 310.14 305.53 311.69 305.85 312.47 306.01 313.25 306.17 314.06 306.33 337.14 311.08 359.94 317.02 382.76 322.83 386.74 323.84 390.72 324.84 394.71 325.82 403.57 328 412.35 330.23 421 333.16 422 333.5 423 333.84 424.03 334.19 454.84 344.84 483.76 361.21 507.75 383.34 509.77 385.2 511.84 386.96 513.94 388.73 545.46 416.44 558.96 458.8 563 499.41 563.1 500.35 563.19 501.29 563.29 502.26 564.1 511.32 564.19 520.35 564.19 529.44 564.19 532.01 564.21 534.59 564.23 537.16 564.31 561.53 561.7 587.21 554 610.41 553.58 611.79 553.16 613.17 552.73 614.55 544.61 640.58 531.76 665.17 513.07 685.19 511.21 687.19 509.45 689.25 507.69 691.35 481.57 721.2 443.56 739.74 406.78 752.45 404.51 753.24 402.26 754.05 400.02 754.88 382.59 761.15 364.06 764.25 345.82 767.16 344.6 767.36 343.38 767.56 342.12 767.76 320.52 771.07 298.92 771.74 277.11 771.67 273.49 771.66 269.88 771.67 266.26 771.68 243.22 771.74 220.2 771.05 197.36 767.75 194.42 767.33 191.47 766.94 188.52 766.54 175.48 764.76 162.55 762.79 149.69 759.99 146.67 759.34 143.64 758.71 140.62 758.07 91.92 747.72 36.25 730.65 0 694.41 0.17 682.92 1.76 671.48 3.25 660.1 3.66 657 4.06 653.9 4.46 650.8 4.57 649.93 4.68 649.06 4.8 648.16 5.93 639.18 6.96 630.19 8 621.19 10.65 598.15 13.51 575.14 16.45 552.13 17.08 547.17 17.71 542.2 18.34 537.24 19.56 527.63 20.78 518.02 22 508.41 29.53 508.26 36.88 508.86 44.37 509.59 46.35 509.77 48.33 509.96 50.31 510.15 53.12 510.41 55.92 510.69 58.73 510.96 62.33 511.3 65.94 511.65 69.54 511.99 73.89 512.4 78.24 512.82 82.59 513.23 91.24 514.06 99.89 514.87 108.55 515.67 110.05 515.81 110.05 515.81 111.59 515.95 115.31 516.29 119.03 516.63 122.75 516.97 125.22 517.2 127.69 517.42 130.16 517.65 130.87 517.71 131.57 517.78 132.29 517.84 136.56 518.24 140.75 518.8 145 519.41 145 549.77 145 580.13 145 611.41 146.98 612.07 148.96 612.73 151 613.41 152.56 614.11 154.1 614.83 155.62 615.59 156.47 616 157.31 616.41 158.18 616.84 159.07 617.28 159.96 617.71 160.88 618.16 169.77 622.45 178.62 626.34 188 629.41 188.98 629.74 188.98 629.74 189.97 630.08 227.82 642.59 272.03 640.51 311 635.41 312.03 635.28 313.07 635.16 314.13 635.02 336.82 632.08 365.94 626.01 381.36 607.6 397.37 585.71 399.82 558.44 396.6 532.08 392.93 509.89 383.59 490.17 365.29 476.36 327.8 451.75 277.46 441.99 233.88 434.46 206.21 429.63 178.83 422.72 152 414.41 151.06 414.12 151.06 414.12 150.1 413.82 111.75 401.93 79.21 385.28 50 357.41 49.34 356.8 48.67 356.19 47.99 355.56 30.95 339.44 20.04 316.76 14 294.41 13.8 293.66 13.59 292.9 13.38 292.12 12.69 289.54 12.03 286.94 11.38 284.35 11.17 283.57 10.97 282.78 10.75 281.98 6.68 265.2 6.66 247.74 6.69 230.58 6.69 227.18 6.67 223.78 6.64 220.39 6.49 166.25 21.73 114.74 60 75.41 101.7 33.54 166.69 11.59 224 3.41 224.69 3.31 225.38 3.21 226.09 3.11 238.77 1.27 251.37 0.26 264.18 0.21Z"/>
</svg>
