<?xml version="1.0" encoding="UTF-8"?>
<!-- Link mark from Heroicons, MIT License — https://heroicons.com -->
<svg xmlns="http://www.w3.org/2000/svg" width="512" height="512" viewBox="0 0 512 512" role="img" aria-label="App icon (monochrome)">
  <path transform="translate(66.56 66.56) scale(15.78667)" fill="#000000" d="M19.902 4.098a3.75 3.75 0 0 0-5.304 0l-4.5 4.5a3.75 3.75 0 0 0 1.035 6.037a.75.75 0 0 1-.646 1.353a5.25 5.25 0 0 1-1.449-8.45l4.5-4.5a5.25 5.25 0 1 1 7.424 7.424l-1.757 1.757a.75.75 0 1 1-1.06-1.06l1.757-1.757a3.75 3.75 0 0 0 0-5.304m-7.389 4.267a.75.75 0 0 1 1-.353a5.25 5.25 0 0 1 1.449 8.45l-4.5 4.5a5.25 5.25 0 1 1-7.424-7.424l1.757-1.757a.75.75 0 1 1 1.06 1.06l-1.757 1.757a3.75 3.75 0 1 0 5.304 5.304l4.5-4.5a3.75 3.75 0 0 0-1.035-6.037a.75.75 0 0 1-.354-1"/>
</svg>
