<?xml version="1.0" encoding="UTF-8"?>
<!-- Lock mark from Heroicons, MIT License — https://heroicons.com -->
<svg xmlns="http://www.w3.org/2000/svg" width="1200" height="630" viewBox="0 0 1200 630" role="img" aria-label="Social preview">
  <defs>
    <linearGradient id="bg" x1="0" y1="0" x2="0" y2="1">
      <stop offset="0" stop-color="#312E81"/>
      <stop offset="1" stop-color="#4F46E5"/>
    </linearGradient>
  </defs>
  <rect width="1200" height="630" fill="url(#bg)"/>
  <g transform="translate(440 155)">
    <path transform="translate(28.80 28.80) scale(10.93333)" fill="#FEFEFE" d="M12 1.5a5.25 5.25 0 0 0-5.25 5.25v3a3 3 0 0 0-3 3v6.75a3 3 0 0 0 3 3h10.5a3 3 0 0 0 3-3v-6.75a3 3 0 0 0-3-3v-3c0-2.9-2.35-5.25-5.25-5.25m3.75 8.25v-3a3.75 3.75 0 1 0-7.5 0v3z"/>
  </g>
</svg>
