<?xml version="1.0" encoding="UTF-8"?>
<!-- Lock mark from Heroicons, MIT License — https://heroicons.com -->
<svg xmlns="http://www.w3.org/2000/svg" width="512" height="512" viewBox="0 0 512 512" role="img" aria-label="App icon (monochrome)">
  <path transform="translate(66.56 66.56) scale(15.78667)" fill="#000000" d="M12 1.5a5.25 5.25 0 0 0-5.25 5.25v3a3 3 0 0 0-3 3v6.75a3 3 0 0 0 3 3h10.5a3 3 0 0 0 3-3v-6.75a3 3 0 0 0-3-3v-3c0-2.9-2.35-5.25-5.25-5.25m3.75 8.25v-3a3.75 3.75 0 1 0-7.5 0v3z"/>
</svg>
